<svg xmlns="http://www.w3.org/2000/svg" viewBox="283 330 755 162" fill="none">
  <!-- S icon (flat indigo — matches website hover state) -->
  <path fill="#6366f1" d="M342.57,485.52l46.86-61.07c4.2-5.48,3.17-13.33-2.31-17.54l-1.08-0.83c-6.34-4.86-15.42-3.67-20.29,2.67l-29.25,38.12c-9.07,11.82-6.84,28.75,4.98,37.82L342.57,485.52z"/>
  <path fill="#6366f1" d="M393.15,410.11c-0.16-15.51-12.79-28.04-28.34-28.04H349.9c-4.94,0-8.95,4.01-8.95,8.95v19.39h42.52l0.01,0.01c0.09,0,0.19-0.01,0.28-0.01c4.37,0,7.9,3.54,7.9,7.9c0,0.9-0.15,1.77-0.43,2.58c0,0,1.25-3.04,1.63-5.72c0.24-1.69,0.29-3.97,0.3-4.77v0c0-0.03,0-0.06,0-0.09C393.15,410.18,393.15,410.11,393.15,410.11z"/>
  <path fill="#6366f1" d="M339.43,335.27l-46.86,61.07c-4.2,5.48-3.17,13.33,2.31,17.54l1.08,0.83c6.34,4.86,15.42,3.67,20.29-2.67l29.25-38.12c9.07-11.82,6.84-28.75-4.98-37.82L339.43,335.27z"/>
  <path fill="#6366f1" d="M288.85,410.68c0.16,15.51,12.79,28.04,28.34,28.04h14.91c4.94,0,8.95-4.01,8.95-8.95v-19.39h-42.52l-0.01-0.01c-0.09,0-0.19,0.01-0.28,0.01c-4.37,0-7.9-3.54-7.9-7.9c0-0.9,0.15-1.77,0.43-2.58c0,0-1.25,3.04-1.63,5.72c-0.24,1.69-0.29,3.97-0.3,4.77v0c0,0.03,0,0.06,0,0.09C288.85,410.6,288.85,410.68,288.85,410.68z"/>
  <!-- Wordmark: SegmentStream (black) -->
  <g fill="#18181b">
    <path d="M452.61,400.96c-1.03-1.65-2.99-3.72-6.2-3.72c-1.45,0-2.48,0.52-3.1,1.14c-0.52,0.52-0.93,1.34-0.93,2.27c0,1.14,0.52,1.86,1.45,2.48c0.62,0.41,1.24,0.62,3.41,1.76l5.16,2.58c2.27,1.14,4.44,2.27,6.09,4.03c2.38,2.38,3.2,5.06,3.2,8.06c0,3.92-1.45,7.33-3.82,9.91c-3.41,3.72-7.64,4.85-12.19,4.85c-2.79,0-6.3-0.41-9.4-2.79c-2.48-1.86-4.54-4.85-5.58-7.95l8.26-3.92c0.52,1.45,1.45,3.3,2.38,4.13c0.62,0.62,2.07,1.65,4.44,1.65c1.55,0,3.2-0.52,4.13-1.45c0.83-0.83,1.45-2.17,1.45-3.41c0-1.24-0.41-2.27-1.34-3.3c-1.24-1.24-2.68-1.96-4.34-2.68l-3.72-1.76c-1.96-0.93-4.34-2.07-5.99-3.72c-2.27-2.17-3.1-4.54-3.1-7.33c0-3.51,1.34-6.92,3.61-9.29c1.96-2.07,5.27-4.13,10.64-4.13c3.1,0,5.58,0.62,8.05,2.27c1.45,0.93,3.41,2.58,4.96,5.37L452.61,400.96z"/>
    <path d="M509.71,423.06c-1.86,3.3-4.54,6.2-7.33,7.95c-3.51,2.27-8.16,3.3-12.81,3.3c-5.78,0-10.53-1.45-14.66-5.58c-4.13-4.13-6.4-10.12-6.4-16.63c0-6.71,2.37-13.22,6.92-17.86c3.61-3.61,8.36-5.89,14.56-5.89c6.92,0,11.36,2.99,13.94,5.68c5.58,5.78,6.09,13.84,6.09,18.38v1.24h-31.19c0.21,3.1,1.55,6.61,3.72,8.78c2.38,2.38,5.27,2.79,7.74,2.79c2.79,0,4.85-0.62,6.92-2.17c1.76-1.34,3.1-3.1,4.03-4.75L509.71,423.06z M499.7,405.4c-0.41-2.38-1.55-4.44-3.1-5.89c-1.34-1.24-3.51-2.48-6.82-2.48c-3.51,0-5.78,1.45-7.12,2.79c-1.45,1.34-2.58,3.41-3.1,5.58H499.7z"/>
    <path d="M552.37,389.5h10.12v39.96c0,10.22-1.14,17.55-7.13,22.62c-2.79,2.27-7.33,4.65-14.46,4.65c-5.06,0-10.12-1.24-14.25-5.37c-3.2-3.2-5.68-8.26-6.4-13.53h9.81c0.41,2.38,1.65,5.16,3.2,6.81c1.24,1.34,3.72,3,7.85,3c4.23,0,6.71-1.65,7.95-2.89c3.3-3.2,3.3-7.75,3.3-10.95v-5.68c-4.65,5.89-10.33,6.2-13.22,6.2c-5.58,0-10.22-1.55-14.35-5.89c-3.92-4.13-6.51-10.02-6.51-17.25c0-7.95,3-13.42,6.4-16.83c4.34-4.44,9.5-5.99,14.77-5.99c4.34,0,9.19,1.45,12.91,5.89V389.5z M533.05,400.34c-2.58,2.38-4.44,6.4-4.44,11.05c0,4.34,1.65,8.57,4.34,10.95c1.86,1.65,4.65,2.89,7.75,2.89c3.2,0,5.99-0.93,8.47-3.51c2.99-3.2,3.82-6.92,3.82-10.22c0-4.85-1.55-8.47-4.13-10.95c-2.48-2.48-5.27-3.1-8.16-3.1C537.91,397.45,535.33,398.17,533.05,400.34z"/>
    <path d="M575.29,389.5h10.12v4.03c3.41-4.13,7.43-5.16,10.74-5.16c4.54,0,8.78,2.17,11.26,6.4c3.61-5.16,9.09-6.4,12.91-6.4c5.27,0,9.91,2.48,12.39,6.82c0.83,1.45,2.27,4.65,2.27,10.95v26.85h-10.12v-23.96c0-4.85-0.52-6.82-0.93-7.75c-0.62-1.65-2.17-3.82-5.78-3.82c-2.48,0-4.65,1.34-5.99,3.2c-1.76,2.48-1.96,6.2-1.96,9.91v22.41h-10.12v-23.96c0-4.85-0.52-6.82-0.93-7.75c-0.62-1.65-2.17-3.82-5.78-3.82c-2.48,0-4.65,1.34-5.99,3.2c-1.76,2.48-1.96,6.2-1.96,9.91v22.41h-10.12V389.5z"/>
    <path d="M686.72,423.06c-1.86,3.3-4.54,6.2-7.33,7.95c-3.51,2.27-8.16,3.3-12.8,3.3c-5.78,0-10.53-1.45-14.66-5.58c-4.13-4.13-6.4-10.12-6.4-16.63c0-6.71,2.38-13.22,6.92-17.86c3.61-3.61,8.36-5.89,14.56-5.89c6.92,0,11.36,2.99,13.94,5.68c5.58,5.78,6.09,13.84,6.09,18.38v1.24h-31.19c0.21,3.1,1.55,6.61,3.72,8.78c2.38,2.38,5.27,2.79,7.75,2.79c2.79,0,4.85-0.62,6.92-2.17c1.76-1.34,3.1-3.1,4.03-4.75L686.72,423.06z M676.7,405.4c-0.41-2.38-1.55-4.44-3.1-5.89c-1.34-1.24-3.51-2.48-6.82-2.48c-3.51,0-5.78,1.45-7.13,2.79c-1.45,1.34-2.58,3.41-3.1,5.58H676.7z"/>
    <path d="M697.46,389.5h10.12v4.03c4.34-4.85,9.29-5.16,11.77-5.16c8.05,0,11.46,4.03,12.81,5.89c1.65,2.38,2.68,5.37,2.68,12.08v26.64h-10.12v-24.16c0-11.05-4.13-11.36-7.95-11.36c-4.54,0-9.19,0.62-9.19,14.66v20.86h-10.12V389.5z"/>
    <path d="M758.08,398.79v34.18h-10.12v-34.18h-4.23v-9.29h4.23v-15.9h10.12v15.9h7.75v9.29H758.08z"/>
    <path d="M791.64,400.96c-1.03-1.65-2.99-3.72-6.2-3.72c-1.45,0-2.48,0.52-3.1,1.14c-0.52,0.52-0.93,1.34-0.93,2.27c0,1.14,0.52,1.86,1.45,2.48c0.62,0.41,1.24,0.62,3.41,1.76l5.16,2.58c2.27,1.14,4.44,2.27,6.09,4.03c2.38,2.38,3.2,5.06,3.2,8.06c0,3.92-1.45,7.33-3.82,9.91c-3.41,3.72-7.64,4.85-12.19,4.85c-2.79,0-6.3-0.41-9.4-2.79c-2.48-1.86-4.54-4.85-5.58-7.95l8.26-3.92c0.52,1.45,1.45,3.3,2.38,4.13c0.62,0.62,2.07,1.65,4.44,1.65c1.55,0,3.2-0.52,4.13-1.45c0.83-0.83,1.45-2.17,1.45-3.41c0-1.24-0.41-2.27-1.34-3.3c-1.24-1.24-2.69-1.96-4.34-2.68l-3.72-1.76c-1.96-0.93-4.34-2.07-5.99-3.72c-2.27-2.17-3.1-4.54-3.1-7.33c0-3.51,1.34-6.92,3.61-9.29c1.96-2.07,5.27-4.13,10.64-4.13c3.1,0,5.58,0.62,8.05,2.27c1.45,0.93,3.41,2.58,4.96,5.37L791.64,400.96z"/>
    <path d="M820.25,398.79v34.18h-10.12v-34.18h-4.23v-9.29h4.23v-15.9h10.12v15.9h7.75v9.29H820.25z"/>
    <path d="M834.81,389.5h10.12v3.92c1.14-1.34,2.79-2.79,4.23-3.61c1.96-1.14,3.92-1.45,6.2-1.45c2.48,0,5.16,0.41,7.95,2.07l-4.13,9.19c-2.27-1.45-4.13-1.55-5.16-1.55c-2.17,0-4.34,0.31-6.3,2.38c-2.79,2.99-2.79,7.13-2.79,10.02v22.51h-10.12V389.5z"/>
    <path d="M904.83,423.06c-1.86,3.3-4.54,6.2-7.33,7.95c-3.51,2.27-8.16,3.3-12.8,3.3c-5.78,0-10.53-1.45-14.66-5.58c-4.13-4.13-6.4-10.12-6.4-16.63c0-6.71,2.38-13.22,6.92-17.86c3.61-3.61,8.36-5.89,14.56-5.89c6.92,0,11.36,2.99,13.94,5.68c5.58,5.78,6.09,13.84,6.09,18.38v1.24h-31.19c0.21,3.1,1.55,6.61,3.72,8.78c2.38,2.38,5.27,2.79,7.75,2.79c2.79,0,4.85-0.62,6.92-2.17c1.76-1.34,3.1-3.1,4.03-4.75L904.83,423.06z M894.81,405.4c-0.41-2.38-1.55-4.44-3.1-5.89c-1.34-1.24-3.51-2.48-6.82-2.48c-3.51,0-5.78,1.45-7.13,2.79c-1.45,1.34-2.58,3.41-3.1,5.58H894.81z"/>
    <path d="M946.38,389.5h10.12v43.48h-10.12v-4.54c-4.44,5.16-9.91,5.89-13.01,5.89c-13.43,0-21.07-11.15-21.07-23.13c0-14.15,9.71-22.82,21.17-22.82c3.2,0,8.78,0.83,12.91,6.2V389.5z M922.63,411.39c0,7.54,4.75,13.84,12.08,13.84c6.4,0,12.29-4.65,12.29-13.74c0-9.5-5.89-14.04-12.29-14.04C927.38,397.45,922.63,403.64,922.63,411.39z"/>
    <path d="M969.31,389.5h10.12v4.03c3.41-4.13,7.43-5.16,10.74-5.16c4.54,0,8.78,2.17,11.26,6.4c3.62-5.16,9.09-6.4,12.91-6.4c5.27,0,9.91,2.48,12.39,6.82c0.83,1.45,2.27,4.65,2.27,10.95v26.85h-10.12v-23.96c0-4.85-0.52-6.82-0.93-7.75c-0.62-1.65-2.17-3.82-5.78-3.82c-2.48,0-4.65,1.34-5.99,3.2c-1.76,2.48-1.96,6.2-1.96,9.91v22.41H994.1v-23.96c0-4.85-0.52-6.82-0.93-7.75c-0.62-1.65-2.17-3.82-5.78-3.82c-2.48,0-4.65,1.34-5.99,3.2c-1.76,2.48-1.96,6.2-1.96,9.91v22.41h-10.12V389.5z"/>
  </g>
</svg>
